<svg xmlns="http://www.w3.org/2000/svg" width="512" height="512" viewBox="0 0 512 512">
<g>
<path d="M 317.00 511.10 C316.17,511.56 359.71,511.95 413.75,511.97 L 512.00 512.00 L 152.20 512.00 C237.80,512.00 303.98,511.62 303.45,511.14 C302.93,510.66 245.35,491.28 175.50,468.06 C73.44,434.13 48.06,425.36 46.26,423.37 C42.00,418.68 42.07,413.44 46.48,408.21 C48.89,405.34 48.91,405.23 47.07,403.56 C46.03,402.62 44.69,400.65 44.08,399.18 C43.28,397.26 43.05,356.38 43.24,254.29 C43.47,125.62 43.65,111.92 45.10,110.48 C45.97,109.60 70.95,98.79 100.60,86.45 C130.24,74.11 155.40,63.59 156.50,63.07 C157.60,62.54 173.35,55.97 191.50,48.46 C227.87,33.40 298.49,3.99 304.00,1.60 C307.15,0.23 292.13,0.07 153.75,0.04 L 0.00 0.00 L 412.33 0.00 C357.66,0.00 313.08,0.17 313.08,0.38 L 313.08 0.38 C313.31,0.60 332.85,6.28 356.50,13.01 C459.96,42.47 464.17,43.61 466.68,46.32 C466.87,46.52 467.04,46.73 467.25,46.96 L 470.00 50.03 L 470.00 462.03 L 466.75 465.47 C463.80,468.60 461.67,469.43 443.50,474.52 C432.50,477.61 422.15,480.55 420.50,481.06 C411.26,483.91 388.20,490.48 373.50,494.44 C370.20,495.33 364.58,496.94 361.00,498.01 C357.42,499.08 346.40,502.27 336.50,505.11 C326.60,507.94 317.83,510.63 317.00,511.10 ZM 297.00 442.93 C306.62,444.51 315.74,445.84 317.25,445.90 L 320.00 446.00 L 320.00 268.06 C320.00,170.19 319.65,89.90 319.23,89.64 C318.81,89.38 303.40,92.93 284.98,97.53 C266.57,102.12 245.20,107.45 237.50,109.37 C229.80,111.28 202.12,118.20 176.00,124.74 L 128.50 136.63 L 128.00 252.21 C127.51,365.16 127.46,367.84 125.54,369.95 C124.47,371.14 109.05,379.36 91.29,388.23 C73.53,397.09 59.00,404.70 59.00,405.15 L 59.00 405.17 C59.00,405.24 59.00,405.30 59.01,405.36 C59.19,406.34 62.23,406.80 113.00,414.52 C140.23,418.66 166.55,422.70 171.50,423.50 C176.45,424.30 194.00,426.99 210.50,429.48 C227.00,431.97 243.20,434.44 246.50,434.97 C249.80,435.50 258.58,436.87 266.00,438.00 C273.42,439.13 287.38,441.35 297.00,442.93 Z" fill="rgb(253,87,34)"/>
<path d="M 412.33 0.00 L 512.00 0.00 L 414.25 0.03 C336.70,0.06 316.83,0.32 318.11,1.29 C318.90,1.89 327.35,4.61 337.76,7.65 C323.34,3.50 313.25,0.54 313.08,0.38 L 313.08 0.38 C313.08,0.17 357.66,0.00 412.33,0.00 ZM 252.97 22.92 C287.47,8.51 301.90,2.24 302.77,1.37 C303.25,0.89 299.56,0.57 285.89,0.36 C302.99,0.59 305.47,0.96 304.00,1.60 C300.99,2.90 278.61,12.25 252.97,22.92 ZM 345.74 9.94 C352.42,11.84 358.72,13.64 364.66,15.34 L 356.50 13.01 C352.79,11.96 349.19,10.93 345.74,9.94 ZM 465.38 45.26 C466.03,45.64 466.38,45.97 466.70,46.33 C466.88,46.52 467.04,46.72 467.24,46.95 L 470.00 50.03 L 467.25 46.96 C467.04,46.73 466.87,46.52 466.68,46.32 C466.35,45.96 465.99,45.63 465.38,45.26 Z" fill="rgb(254,224,206)"/>
<path d="M 0.00 256.00 L 0.00 0.00 L 152.07 0.00 C280.81,0.00 303.93,0.21 302.77,1.37 C301.49,2.65 271.21,15.46 191.50,48.46 C173.35,55.97 157.60,62.54 156.50,63.07 C155.40,63.59 130.24,74.11 100.60,86.45 C70.95,98.79 45.97,109.60 45.10,110.48 C43.65,111.92 43.47,125.62 43.24,254.29 C43.05,356.38 43.28,397.26 44.08,399.18 C44.69,400.65 46.03,402.62 47.07,403.56 C48.91,405.23 48.89,405.34 46.48,408.21 C42.07,413.44 42.00,418.68 46.26,423.37 C48.06,425.36 73.44,434.13 175.50,468.06 C245.35,491.28 302.93,510.66 303.45,511.14 C303.98,511.62 237.80,512.00 152.20,512.00 L 0.00 512.00 L 0.00 256.00 ZM 317.00 511.10 C317.83,510.63 326.60,507.94 336.50,505.11 C346.40,502.27 357.42,499.08 361.00,498.01 C364.58,496.94 370.20,495.33 373.50,494.44 C388.20,490.48 411.26,483.91 420.50,481.06 C422.15,480.55 432.50,477.61 443.50,474.52 C461.67,469.43 463.80,468.60 466.75,465.47 L 470.00 462.03 L 470.00 256.03 L 470.00 50.03 L 467.24 46.95 C464.32,43.67 468.88,45.06 342.11,8.91 C329.80,5.40 319.00,1.97 318.11,1.29 C316.83,0.32 336.70,0.06 414.25,0.03 L 512.00 0.00 L 512.00 256.00 L 512.00 512.00 L 413.75 511.97 C359.71,511.95 316.17,511.56 317.00,511.10 ZM 297.00 442.93 C287.38,441.35 273.42,439.13 266.00,438.00 C258.58,436.87 249.80,435.50 246.50,434.97 C243.20,434.44 227.00,431.97 210.50,429.48 C194.00,426.99 176.45,424.30 171.50,423.50 C166.55,422.70 140.23,418.66 113.00,414.52 C58.72,406.27 59.00,406.32 59.00,405.15 C59.00,404.70 73.53,397.09 91.29,388.23 C109.05,379.36 124.47,371.14 125.54,369.95 C127.46,367.84 127.51,365.16 128.00,252.21 L 128.50 136.63 L 176.00 124.74 C202.12,118.20 229.80,111.28 237.50,109.37 C245.20,107.45 266.57,102.12 284.98,97.53 C303.40,92.93 318.81,89.38 319.23,89.64 C319.65,89.90 320.00,170.19 320.00,268.06 L 320.00 446.00 L 317.25 445.90 C315.74,445.84 306.62,444.51 297.00,442.93 Z" fill="rgb(254,254,254)"/>
</g>
</svg>